<svg xmlns="http://www.w3.org/2000/svg" xmlns:xlink="http://www.w3.org/1999/xlink" viewBox="0 0 48 60" version="1.1" x="0px" y="0px"><title>filter</title><g stroke="none" stroke-width="1" fill="none" fill-rule="evenodd"><g transform="translate(-201.000000, -322.000000)" fill="#000000" fill-rule="nonzero"><path d="M232,348 C229.581109,348 227.563399,349.717665 227.100056,351.999812 L208,352 C207.447715,352 207,352.447715 207,353 C207,353.552285 207.447715,354 208,354 L227.100259,354.001186 C227.563988,356.282836 229.581461,358 232,358 C234.418539,358 236.436012,356.282836 236.899741,354.001186 L242,354 C242.552285,354 243,353.552285 243,353 C243,352.447715 242.552285,352 242,352 L236.899944,351.999812 C236.436601,349.717665 234.418891,348 232,348 Z M232,350 C233.656854,350 235,351.343146 235,353 C235,354.656854 233.656854,356 232,356 C230.343146,356 229,354.656854 229,353 C229,351.343146 230.343146,350 232,350 Z M218,334 C215.581109,334 213.563399,335.717665 213.100056,337.999812 L208,338 C207.447715,338 207,338.447715 207,339 C207,339.552285 207.447715,340 208,340 L213.100259,340.001186 C213.563988,342.282836 215.581461,344 218,344 C220.418539,344 222.436012,342.282836 222.899741,340.001186 L242,340 C242.552285,340 243,339.552285 243,339 C243,338.447715 242.552285,338 242,338 L222.899944,337.999812 C222.436601,335.717665 220.418891,334 218,334 Z M218,336 C219.656854,336 221,337.343146 221,339 C221,340.656854 219.656854,342 218,342 C216.343146,342 215,340.656854 215,339 C215,337.343146 216.343146,336 218,336 Z"/></g></g></svg>